<svg width="200" height="63" viewBox="0 0 200 63" fill="none" xmlns="http://www.w3.org/2000/svg">
<rect x="200" y="63" width="200" height="63" rx="20" transform="rotate(-180 200 63)" fill="#77D18D"/>
<path d="M127.392 15.8C130.037 18.9573 132.768 21.688 135.584 23.992C138.4 26.296 141.301 28.1733 144.288 29.624L144.288 31.928C138.4 34.9147 132.768 39.5227 127.392 45.752L122.912 45.752C124.277 42.8507 125.643 40.2907 127.008 38.072C128.373 35.9387 129.696 34.1467 130.976 32.696L130.976 28.856C129.696 27.4907 128.373 25.6987 127.008 23.48C125.643 21.3467 124.277 18.7867 122.912 15.8L127.392 15.8ZM131.616 28.088L131.616 33.464L55.712 33.464L55.712 28.088L131.616 28.088Z" fill="#EEF2EF"/>
</svg>
